<?xml version="1.0" encoding="UTF-8"?>
<svg width="115px" height="33px" viewBox="0 0 115 33" version="1.1" xmlns="http://www.w3.org/2000/svg" xmlns:xlink="http://www.w3.org/1999/xlink">
    <!-- Generator: Sketch 51.3 (57544) - http://www.bohemiancoding.com/sketch -->
    <title>ΘStyles/Logos/HubSpot/Wordmark-White</title>
    <desc>Created with Sketch.</desc>
    <defs></defs>
    <g id="Fully-Responsive" stroke="none" stroke-width="1" fill="none" fill-rule="evenodd">
        <g id="Mobile-Footer---Concept-2" transform="translate(-130.000000, -475.000000)" fill="#FFFFFF">
            <g id="Legal-Text" transform="translate(81.000000, 475.000000)">
                <g id="Logo-&amp;-Copyright" transform="translate(18.000000, 0.000000)">
                    <g id="ΘStyles/Logos/HubSpot/Wordmark-White" transform="translate(31.000000, 0.000000)">
                        <g id="Page1">
                            <polygon id="Fill1" points="12.380001 5.30132164 12.380001 14.3911769 3.98556535 14.3911769 3.98556535 5.30132164 -7.81077547e-05 5.30132164 -7.81077547e-05 26.9996858 3.98556535 26.9996858 3.98556535 18.2049935 12.380001 18.2049935 12.380001 26.9996858 16.3654492 26.9996858 16.3654492 5.30132164"></polygon>
                            <g id="Group14" transform="translate(18.745861, 0.161175)">
                                <path d="M10.374643,19.824448 C10.374643,21.6352342 8.89840643,23.1032817 7.0775194,23.1032817 C5.25663237,23.1032817 3.7803958,21.6352342 3.7803958,19.824448 L3.7803958,10.5306973 L-1.95269387e-05,10.5306973 L-1.95269387e-05,19.824448 C0.000566281222,23.7077833 3.16666412,26.8555414 7.07166132,26.8549588 C10.9760727,26.8543763 14.1408037,23.7070066 14.1413895,19.824448 L14.1413895,10.5306973 L10.374643,10.5306973 L10.374643,19.824448 Z" id="Fill2"></path>
                                <path d="M38.3840643,11.4880934 C38.3840643,9.58312699 39.6513626,8.97920796 41.039728,8.97920796 C42.1588168,8.97920796 43.6368108,9.82585972 44.6033943,10.8531046 L47.0794101,7.95196305 C45.8433549,6.28972932 43.336096,5.14014711 41.2838147,5.14014711 C37.1831576,5.14014711 34.2170156,7.52863717 34.2170156,11.4880934 C34.2170156,18.8341568 43.2462721,16.5039226 43.2462721,20.6148441 C43.2462721,21.8826857 42.0082641,23.0033341 40.5906084,23.0033341 C38.3547739,23.0033341 37.6303245,21.9158915 36.6032075,20.7661151 L33.8557672,23.6072531 C35.6131917,25.7530105 37.7806819,26.8422008 40.3777648,26.8422008 C44.2735843,26.8422008 47.4074627,24.424777 47.4074627,20.6459139 C47.4074627,12.4900942 38.3782062,15.0242238 38.3782062,11.4880934" id="Fill4"></path>
                                <path d="M94.2428447,23.3723267 C92.0091581,23.3723267 91.3745326,22.4111051 91.3745326,20.9391738 L91.3745326,14.4240332 L94.8462271,14.4240332 L94.8462271,11.1228681 L91.3745326,11.1228681 L91.3745326,6.76746616 L87.5411993,8.47824644 L87.5411993,21.7489302 C87.5411993,25.1431105 89.8961481,26.854085 93.1259038,26.854085 C93.6324325,26.8632117 94.1387661,26.8230152 94.6374841,26.7336895 L95.5726292,23.3101871 C95.1508473,23.3391209 94.6665792,23.3682488 94.2428447,23.3682488" id="Fill6"></path>
                                <path d="M24.7406704,23.0692992 C22.3681473,23.0692992 20.4447439,21.1565653 20.4447439,18.7972031 C20.4447439,16.437841 22.3681473,14.5251071 24.7406704,14.5251071 C27.1131934,14.5251071 29.0365969,16.437841 29.0365969,18.7972031 C29.0365969,21.1565653 27.1131934,23.0692992 24.7406704,23.0692992 M24.7641027,10.6394416 C22.8914693,10.6394416 21.5851171,11.1792792 20.3217241,12.4123614 L20.3217241,5.2701936 L16.5354507,5.2701936 L16.5354507,18.5078657 C16.5354507,23.4634971 20.1381709,26.8578716 24.1861053,26.8578716 C28.6773012,26.8578716 32.6276009,23.4032994 32.6276009,18.7505984 C32.6276009,14.1561533 28.9916849,10.6413834 24.7641027,10.6413834" id="Fill8"></path>
                                <path d="M62.2909344,18.5059239 C62.2909344,20.865286 60.3675309,22.7780199 57.9950079,22.7780199 C55.6224848,22.7780199 53.6990814,20.865286 53.6990814,18.5059239 C53.6990814,16.1465617 55.6224848,14.2338278 57.9950079,14.2338278 C60.3675309,14.2338278 62.2909344,16.1465617 62.2909344,18.5059239 M65.8760803,18.5525285 C65.8760803,13.8920601 61.9335914,10.4452554 57.4345848,10.4452554 C53.3866504,10.4452554 49.7839302,13.8396299 49.7839302,18.7952613 L49.7839302,32.0407008 L53.5702036,32.0407008 L53.5702036,24.8888237 C54.8316438,26.1199641 56.1399487,26.6617436 58.0106294,26.6617436 C62.2380164,26.6617436 65.8741277,23.1489155 65.8741277,18.5525285" id="Fill10"></path>
                                <path d="M76.8034138,22.7004619 C74.4652582,22.7004619 72.5697782,20.8154966 72.5697782,18.4903113 C72.5697782,16.1653201 74.4652582,14.280549 76.8034138,14.280549 C79.1415695,14.280549 81.0368541,16.1653201 81.0368541,18.4903113 C81.0368541,20.8154966 79.1415695,22.7004619 76.8034138,22.7004619 M78.0705169,10.3851742 L78.0705169,6.64107038 C79.086113,6.16958632 79.7371411,5.15768212 79.7422181,4.04285924 L79.7422181,3.95566965 C79.7377269,2.3668383 78.4438719,1.08016064 76.8463731,1.07588855 L76.7585019,1.07588855 C75.161003,1.08016064 73.8669528,2.3668383 73.8624616,3.95566965 L73.8624616,4.04285924 C73.8675386,5.15768212 74.5185667,6.16958632 75.5341628,6.64107038 L75.5341628,10.3851742 C74.1036193,10.6026627 72.7562605,11.1920178 71.6287751,12.0938184 L61.2912137,4.09528951 C61.3648303,3.83158468 61.4040794,3.55933565 61.4083754,3.28572732 C61.4105233,1.49144698 59.9495178,0.0352447923 58.1452286,0.0331087443 C56.3411348,0.0307785101 54.8768096,1.48367953 54.8746617,3.27776568 C54.8723184,5.07204602 56.333324,6.52824821 58.1376131,6.53038425 C58.705066,6.52844239 59.2619743,6.37775391 59.752491,6.09346534 L69.9160673,13.9620837 C68.0426528,16.7729287 68.0930323,20.4385813 70.0431876,23.1975786 L66.9501206,26.2732935 C66.7019332,26.1948423 66.4432012,26.1528981 66.1825166,26.1492085 C64.6998361,26.1492085 63.4975625,27.3446187 63.4975625,28.8192686 C63.4975625,30.2939184 64.6998361,31.4893286 66.1825166,31.4893286 C67.6653923,31.4893286 68.8674707,30.2939184 68.8674707,28.8192686 C68.8641511,28.56003 68.8219729,28.3029275 68.7426935,28.0559227 L71.8025648,25.0130252 C75.4236403,27.7634783 80.6008176,27.0741173 83.3666132,23.4731288 C86.1324088,19.8725285 85.4393977,14.7236819 81.8183222,11.9732288 C80.7220799,11.1405584 79.4336925,10.5947011 78.0705169,10.3851742" id="Fill12"></path>
                            </g>
                        </g>
                    </g>
                </g>
            </g>
        </g>
    </g>
</svg>